# xmcd
#
# Track frame offsets:
#  150
#  15700
#  34534
#  49531
#  63978
#  78820
#  93811
#  105858
#  116608
#  137436
#  153195
#  170074
#
# Disc length: 2519 seconds
#
# Revision: 0
# Processed by: cddbd v1.5.1PL2 Copyright (c) Steve Scherf et al.
# Submitted via: Collectorz.com_Music_Collector 6.9
#
DISCID=7e09d50c
DTITLE=Willie and The Wolves - Move Me, Baby
DYEAR=2005
DGENRE=Blues
TTITLE0=From the bottom
TTITLE1=Blue light boogie
TTITLE2=Bad case of love
TTITLE3=Roll with my baby
TTITLE4=Directly from my heart
TTITLE5=Hot little mama
TTITLE6=I'm ready
TTITLE7=One more Pee Wee
TTITLE8=Cross my heart
TTITLE9=Waiting for your call
TTITLE10=I wanna make love to you
TTITLE11=Evenin'
EXTD=
EXTT0=
EXTT1=
EXTT2=
EXTT3=
EXTT4=
EXTT5=
EXTT6=
EXTT7=
EXTT8=
EXTT9=
EXTT10=
EXTT11=
PLAYORDER=
